# xmcd
#
# Track frame offsets:
#  200
#  10315
#  28175
#  43797
#  55105
#  64302
#  74685
#  88287
#  99810
#  111887
#  125175
#  135072
#  143795
#  156742
#  167705
#
# Disc length: 2307 seconds
#
# Revision: 0
# Processed by: cddbd v1.4PL0 Copyright (c) Steve Scherf et al.
# Submitted via: AltoMP3_Maker 3.0
#
DISCID=dc09010f
DTITLE=Various Artist - Travis County Pickin'
DYEAR=1900
DGENRE=
TTITLE0=Austin-Tatious
TTITLE1=April in Paris, Texas
TTITLE2=White Corn
TTITLE3=The Creeper
TTITLE4=House of Cards
TTITLE5=Oreo Swing
TTITLE6=Travis County Pickin'
TTITLE7=Stranger Pickin'
TTITLE8=Danny's Boogie
TTITLE9=Liar's Poker
TTITLE10=Your New Flame (Is Burnin' Me) [#]
TTITLE11=Ellen
TTITLE12=Special K
TTITLE13=Buckaroo 2002
TTITLE14=The Fifth Set
EXTD=
EXTT0=
EXTT1=
EXTT2=
EXTT3=
EXTT4=
EXTT5=
EXTT6=
EXTT7=
EXTT8=
EXTT9=
EXTT10=
EXTT11=
EXTT12=
EXTT13=
EXTT14=
PLAYORDER=
